<mxfile host="drawio-plugin" modified="2023-06-16T10:29:57.572Z" agent="5.0 (Windows NT 6.2; Win64; x64) AppleWebKit/537.36 (KHTML, like Gecko) Chrome/104.0.5112.102 Safari/537.36" etag="8zjx5mTl1szc4znewvTA" version="20.5.3" type="embed"><diagram name="Seite-1" id="S5l72sn21yenRpGNLV-D"><mxGraphModel dx="573" dy="383" grid="1" gridSize="10" guides="1" tooltips="1" connect="1" arrows="1" fold="1" page="1" pageScale="1" pageWidth="500" pageHeight="500" math="0" shadow="0"><root><mxCell id="0"/><mxCell id="1" parent="0"/><mxCell id="2YdTuyt2Vs7Uolm6UVBZ-1" value="Data" style="rounded=0;whiteSpace=wrap;html=1;dashed=1;dashPattern=8 8;" parent="1" vertex="1"><mxGeometry x="17" y="20" width="120" height="60" as="geometry"/></mxCell><mxCell id="2YdTuyt2Vs7Uolm6UVBZ-24" style="edgeStyle=orthogonalEdgeStyle;rounded=0;orthogonalLoop=1;jettySize=auto;html=1;startArrow=classic;startFill=1;" parent="1" source="2YdTuyt2Vs7Uolm6UVBZ-2" target="2YdTuyt2Vs7Uolm6UVBZ-3" edge="1"><mxGeometry relative="1" as="geometry"/></mxCell><mxCell id="2YdTuyt2Vs7Uolm6UVBZ-2" value="Model" style="rounded=0;whiteSpace=wrap;html=1;fillColor=#CCFF90;" parent="1" vertex="1"><mxGeometry x="17" y="130" width="120" height="60" as="geometry"/></mxCell><mxCell id="2YdTuyt2Vs7Uolm6UVBZ-3" value="View" style="rounded=0;whiteSpace=wrap;html=1;fillColor=#64DD17;" parent="1" vertex="1"><mxGeometry x="17" y="270" width="120" height="60" as="geometry"/></mxCell><mxCell id="2YdTuyt2Vs7Uolm6UVBZ-4" value="" style="shape=actor;whiteSpace=wrap;html=1;fillColor=#01579B;fontColor=#ffffff;strokeColor=#001DBC;" parent="1" vertex="1"><mxGeometry x="57" y="400" width="40" height="60" as="geometry"/></mxCell><mxCell id="2YdTuyt2Vs7Uolm6UVBZ-5" value="delegate" style="ellipse;whiteSpace=wrap;html=1;aspect=fixed;fillColor=#76FF03;" parent="1" vertex="1"><mxGeometry x="197" y="205" width="50" height="50" as="geometry"/></mxCell><mxCell id="2YdTuyt2Vs7Uolm6UVBZ-6" value="Controller" style="rounded=0;whiteSpace=wrap;html=1;" parent="1" vertex="1"><mxGeometry x="370" y="200" width="120" height="60" as="geometry"/></mxCell><mxCell id="2YdTuyt2Vs7Uolm6UVBZ-7" value="Service" style="rounded=0;whiteSpace=wrap;html=1;" parent="1" vertex="1"><mxGeometry x="370" y="20" width="120" height="60" as="geometry"/></mxCell><mxCell id="2YdTuyt2Vs7Uolm6UVBZ-8" value="Signal" style="ellipse;whiteSpace=wrap;html=1;aspect=fixed;" parent="1" vertex="1"><mxGeometry x="227" y="185" width="40" height="40" as="geometry"/></mxCell><mxCell id="2YdTuyt2Vs7Uolm6UVBZ-9" value="Slot" style="ellipse;whiteSpace=wrap;html=1;aspect=fixed;" parent="1" vertex="1"><mxGeometry x="360" y="190" width="30" height="30" as="geometry"/></mxCell><mxCell id="2YdTuyt2Vs7Uolm6UVBZ-11" value="" style="curved=1;endArrow=classic;html=1;rounded=0;exitX=0.25;exitY=1;exitDx=0;exitDy=0;entryX=0;entryY=0.75;entryDx=0;entryDy=0;" parent="1" source="2YdTuyt2Vs7Uolm6UVBZ-3" target="2YdTuyt2Vs7Uolm6UVBZ-4" edge="1"><mxGeometry width="50" height="50" relative="1" as="geometry"><mxPoint x="201" y="280" as="sourcePoint"/><mxPoint x="251" y="230" as="targetPoint"/><Array as="points"><mxPoint y="400"/></Array></mxGeometry></mxCell><mxCell id="2YdTuyt2Vs7Uolm6UVBZ-12" value="" style="curved=1;endArrow=classic;html=1;rounded=0;exitX=1;exitY=0.75;exitDx=0;exitDy=0;entryX=0.75;entryY=1;entryDx=0;entryDy=0;" parent="1" source="2YdTuyt2Vs7Uolm6UVBZ-4" target="2YdTuyt2Vs7Uolm6UVBZ-3" edge="1"><mxGeometry width="50" height="50" relative="1" as="geometry"><mxPoint x="217" y="455" as="sourcePoint"/><mxPoint x="207" y="340" as="targetPoint"/><Array as="points"><mxPoint x="160" y="400"/></Array></mxGeometry></mxCell><mxCell id="2YdTuyt2Vs7Uolm6UVBZ-13" value="input" style="text;html=1;align=center;verticalAlign=middle;resizable=0;points=[];autosize=1;strokeColor=none;fillColor=none;" parent="1" vertex="1"><mxGeometry x="82" y="350" width="50" height="30" as="geometry"/></mxCell><mxCell id="2YdTuyt2Vs7Uolm6UVBZ-14" value="output" style="text;html=1;align=center;verticalAlign=middle;resizable=0;points=[];autosize=1;strokeColor=none;fillColor=none;" parent="1" vertex="1"><mxGeometry x="17" y="370" width="60" height="30" as="geometry"/></mxCell><mxCell id="2YdTuyt2Vs7Uolm6UVBZ-15" value="" style="curved=1;endArrow=classic;html=1;rounded=0;exitX=1;exitY=0.75;exitDx=0;exitDy=0;entryX=0.5;entryY=1;entryDx=0;entryDy=0;startArrow=classic;startFill=1;" parent="1" source="2YdTuyt2Vs7Uolm6UVBZ-3" target="2YdTuyt2Vs7Uolm6UVBZ-5" edge="1"><mxGeometry width="50" height="50" relative="1" as="geometry"><mxPoint x="217" y="400" as="sourcePoint"/><mxPoint x="227" y="285" as="targetPoint"/><Array as="points"><mxPoint x="197" y="300"/></Array></mxGeometry></mxCell><mxCell id="2YdTuyt2Vs7Uolm6UVBZ-16" value="" style="curved=1;endArrow=classic;html=1;rounded=0;exitX=1;exitY=0.25;exitDx=0;exitDy=0;entryX=0;entryY=1;entryDx=0;entryDy=0;startArrow=classic;startFill=1;" parent="1" source="2YdTuyt2Vs7Uolm6UVBZ-3" target="2YdTuyt2Vs7Uolm6UVBZ-5" edge="1"><mxGeometry width="50" height="50" relative="1" as="geometry"><mxPoint x="162" y="322.5" as="sourcePoint"/><mxPoint x="247" y="277.5" as="targetPoint"/><Array as="points"><mxPoint x="167" y="250"/></Array></mxGeometry></mxCell><mxCell id="2YdTuyt2Vs7Uolm6UVBZ-17" value="render" style="text;html=1;align=center;verticalAlign=middle;resizable=0;points=[];autosize=1;strokeColor=none;fillColor=none;" parent="1" vertex="1"><mxGeometry x="187" y="285" width="60" height="30" as="geometry"/></mxCell><mxCell id="2YdTuyt2Vs7Uolm6UVBZ-18" value="edit" style="text;html=1;align=center;verticalAlign=middle;resizable=0;points=[];autosize=1;strokeColor=none;fillColor=none;" parent="1" vertex="1"><mxGeometry x="137" y="230" width="40" height="30" as="geometry"/></mxCell><mxCell id="2YdTuyt2Vs7Uolm6UVBZ-20" value="" style="curved=1;endArrow=classic;html=1;rounded=0;exitX=0.423;exitY=0.002;exitDx=0;exitDy=0;entryX=1;entryY=0.5;entryDx=0;entryDy=0;startArrow=none;startFill=0;exitPerimeter=0;endFill=1;" parent="1" source="2YdTuyt2Vs7Uolm6UVBZ-5" target="2YdTuyt2Vs7Uolm6UVBZ-2" edge="1"><mxGeometry width="50" height="50" relative="1" as="geometry"><mxPoint x="197" y="170" as="sourcePoint"/><mxPoint x="282" y="110" as="targetPoint"/><Array as="points"><mxPoint x="207" y="145"/></Array></mxGeometry></mxCell><mxCell id="2YdTuyt2Vs7Uolm6UVBZ-21" value="edit" style="text;html=1;align=center;verticalAlign=middle;resizable=0;points=[];autosize=1;strokeColor=none;fillColor=none;" parent="1" vertex="1"><mxGeometry x="189" y="144" width="40" height="30" as="geometry"/></mxCell><mxCell id="2YdTuyt2Vs7Uolm6UVBZ-25" value="render" style="text;html=1;align=center;verticalAlign=middle;resizable=0;points=[];autosize=1;strokeColor=none;fillColor=none;" parent="1" vertex="1"><mxGeometry x="17" y="215" width="60" height="30" as="geometry"/></mxCell><mxCell id="2YdTuyt2Vs7Uolm6UVBZ-26" style="edgeStyle=orthogonalEdgeStyle;rounded=0;orthogonalLoop=1;jettySize=auto;html=1;startArrow=classic;startFill=1;exitX=0.5;exitY=1;exitDx=0;exitDy=0;entryX=0.5;entryY=0;entryDx=0;entryDy=0;" parent="1" source="2YdTuyt2Vs7Uolm6UVBZ-1" target="2YdTuyt2Vs7Uolm6UVBZ-2" edge="1"><mxGeometry relative="1" as="geometry"><mxPoint x="208.65999999999997" y="64" as="sourcePoint"/><mxPoint x="208.65999999999997" y="144" as="targetPoint"/></mxGeometry></mxCell><mxCell id="2YdTuyt2Vs7Uolm6UVBZ-27" value="update" style="text;html=1;align=center;verticalAlign=middle;resizable=0;points=[];autosize=1;strokeColor=none;fillColor=none;" parent="1" vertex="1"><mxGeometry x="77" y="90" width="60" height="30" as="geometry"/></mxCell><mxCell id="2YdTuyt2Vs7Uolm6UVBZ-29" value="" style="curved=1;endArrow=none;html=1;rounded=0;exitX=1;exitY=0;exitDx=0;exitDy=0;entryX=0;entryY=0;entryDx=0;entryDy=0;startArrow=classic;startFill=1;endFill=0;" parent="1" source="2YdTuyt2Vs7Uolm6UVBZ-8" target="2YdTuyt2Vs7Uolm6UVBZ-9" edge="1"><mxGeometry width="50" height="50" relative="1" as="geometry"><mxPoint x="293" y="157" as="sourcePoint"/><mxPoint x="360" y="120" as="targetPoint"/><Array as="points"><mxPoint x="320" y="160"/></Array></mxGeometry></mxCell><mxCell id="2YdTuyt2Vs7Uolm6UVBZ-30" value="emit" style="text;html=1;align=center;verticalAlign=middle;resizable=0;points=[];autosize=1;strokeColor=none;fillColor=none;" parent="1" vertex="1"><mxGeometry x="285" y="155" width="50" height="30" as="geometry"/></mxCell><mxCell id="2YdTuyt2Vs7Uolm6UVBZ-31" value="" style="curved=1;endArrow=classic;html=1;rounded=0;exitX=1;exitY=1;exitDx=0;exitDy=0;entryX=0;entryY=1;entryDx=0;entryDy=0;startArrow=none;startFill=0;endFill=1;dashed=1;" parent="1" source="2YdTuyt2Vs7Uolm6UVBZ-8" target="2YdTuyt2Vs7Uolm6UVBZ-9" edge="1"><mxGeometry width="50" height="50" relative="1" as="geometry"><mxPoint x="267" y="282" as="sourcePoint"/><mxPoint x="370" y="285" as="targetPoint"/><Array as="points"><mxPoint x="310" y="250"/></Array></mxGeometry></mxCell><mxCell id="2YdTuyt2Vs7Uolm6UVBZ-32" style="edgeStyle=orthogonalEdgeStyle;rounded=0;orthogonalLoop=1;jettySize=auto;html=1;startArrow=classic;startFill=1;" parent="1" source="2YdTuyt2Vs7Uolm6UVBZ-7" target="2YdTuyt2Vs7Uolm6UVBZ-6" edge="1"><mxGeometry relative="1" as="geometry"><mxPoint x="87" y="200" as="sourcePoint"/><mxPoint x="87" y="280" as="targetPoint"/><Array as="points"><mxPoint x="430" y="120"/><mxPoint x="430" y="120"/></Array></mxGeometry></mxCell><mxCell id="2YdTuyt2Vs7Uolm6UVBZ-33" value="" style="curved=1;endArrow=classic;html=1;rounded=0;exitX=0.25;exitY=0;exitDx=0;exitDy=0;entryX=1;entryY=0.25;entryDx=0;entryDy=0;startArrow=classic;startFill=1;endFill=1;" parent="1" source="2YdTuyt2Vs7Uolm6UVBZ-6" target="2YdTuyt2Vs7Uolm6UVBZ-2" edge="1"><mxGeometry width="50" height="50" relative="1" as="geometry"><mxPoint x="228" y="215" as="sourcePoint"/><mxPoint x="147" y="155" as="targetPoint"/><Array as="points"><mxPoint x="360" y="130"/><mxPoint x="300" y="100"/><mxPoint x="210" y="110"/></Array></mxGeometry></mxCell><mxCell id="2" value="" style="curved=1;endArrow=none;html=1;rounded=0;exitX=0.5;exitY=1;exitDx=0;exitDy=0;entryX=1.006;entryY=0.861;entryDx=0;entryDy=0;startArrow=classic;startFill=1;endFill=0;entryPerimeter=0;" edge="1" parent="1" source="2YdTuyt2Vs7Uolm6UVBZ-6" target="2YdTuyt2Vs7Uolm6UVBZ-3"><mxGeometry width="50" height="50" relative="1" as="geometry"><mxPoint x="473" y="414.9999999999999" as="sourcePoint"/><mxPoint x="210" y="359.9999999999999" as="targetPoint"/><Array as="points"><mxPoint x="400" y="320"/><mxPoint x="330" y="370"/><mxPoint x="220" y="360"/></Array></mxGeometry></mxCell><mxCell id="3" value="call function&lt;br&gt;via QmlEngine" style="text;html=1;align=center;verticalAlign=middle;resizable=0;points=[];autosize=1;strokeColor=none;fillColor=none;" vertex="1" parent="1"><mxGeometry x="320" y="360" width="100" height="40" as="geometry"/></mxCell></root></mxGraphModel></diagram></mxfile>